<svg width="56" height="56" viewBox="0 0 56 56" fill="none" xmlns="http://www.w3.org/2000/svg">
<g id="State=Hover, Variant=Inside">
<g id="Big Ellipse" opacity="0.1" filter="url(#filter0_f_1_440)">
<circle cx="36" cy="36" r="12" fill="white"/>
</g>
<path id="Ellipse" d="M25.0535 33.732C24.8445 33.283 25.2849 32.8489 25.7327 33.051C25.8297 33.0959 25.9044 33.1707 25.9492 33.268C26.1507 33.717 25.7178 34.1511 25.27 33.949C25.1729 33.9041 25.0983 33.8293 25.0535 33.732Z" fill="white" fill-opacity="0.4"/>
<path id="Ellipse_2" d="M33.8002 38.5093C34.0018 38.0603 33.5689 37.6263 33.121 37.8283C33.024 37.8732 32.9494 37.9481 32.9046 38.0453C32.6956 38.4944 33.136 38.9284 33.5838 38.7264C33.6808 38.6815 33.7555 38.6066 33.8002 38.5093Z" fill="white"/>
<path id="Ellipse_3" d="M31.9492 27.732C32.1507 27.283 31.7178 26.8489 31.27 27.051C31.1729 27.0959 31.0983 27.1707 31.0535 27.268C30.8445 27.717 31.2849 28.1511 31.7327 27.949C31.8297 27.9041 31.9044 27.8293 31.9492 27.732Z" fill="white" fill-opacity="0.8"/>
<path id="Ellipse_4" d="M42.949 25.732C43.1511 25.283 42.717 24.8489 42.268 25.051C42.1707 25.0959 42.0959 25.1707 42.051 25.268C41.8489 25.717 42.283 26.1511 42.732 25.949C42.8293 25.9041 42.9041 25.8293 42.949 25.732Z" fill="white" fill-opacity="0.4"/>
<path id="Ellipse_5" d="M44.0535 33.732C43.8445 33.283 44.2849 32.8489 44.7327 33.051C44.8298 33.0959 44.9044 33.1707 44.9492 33.268C45.1507 33.717 44.7178 34.1511 44.2699 33.949C44.1729 33.9041 44.0983 33.8293 44.0535 33.732Z" fill="white" fill-opacity="0.3"/>
<path id="Ellipse_6" d="M40.0535 42.732C39.8445 42.283 40.2849 41.8489 40.7327 42.051C40.8297 42.0959 40.9044 42.1707 40.9492 42.268C41.1507 42.717 40.7178 43.1511 40.27 42.949C40.1729 42.9041 40.0983 42.8293 40.0535 42.732Z" fill="white" fill-opacity="0.4"/>
<path id="Ellipse_7" d="M26.0535 44.732C25.8445 44.283 26.2849 43.8489 26.7327 44.051C26.8297 44.0959 26.9044 44.1707 26.9492 44.268C27.1507 44.717 26.7178 45.1511 26.27 44.949C26.1729 44.9041 26.0983 44.8293 26.0535 44.732Z" fill="white" fill-opacity="0.4"/>
</g>
<defs>
<filter id="filter0_f_1_440" x="0" y="0" width="72" height="72" filterUnits="userSpaceOnUse" color-interpolation-filters="sRGB">
<feFlood flood-opacity="0" result="BackgroundImageFix"/>
<feBlend mode="normal" in="SourceGraphic" in2="BackgroundImageFix" result="shape"/>
<feGaussianBlur stdDeviation="12" result="effect1_foregroundBlur_1_440"/>
</filter>
</defs>
</svg>
