<?xml version="1.0" encoding="UTF-8" standalone="no"?>
<!-- Created with Inkscape (http://www.inkscape.org/) -->
<svg
   xmlns:svg="http://www.w3.org/2000/svg"
   xmlns="http://www.w3.org/2000/svg"
   version="1.0"
   width="200pt"
   height="276pt"
   viewBox="0 0 200 276"
   id="svg2">
  <defs
     id="defs4">
    <clipPath
       id="clip0">
      <rect
         width="200"
         height="276"
         x="0"
         y="0"
         id="rect7" />
    </clipPath>
  </defs>
  <path
     d="M 0,0 L 99.732178,0 C 97.578979,0.790176 95.38559,1.470627 93.144897,1.959106 C 62.814133,8.647705 32.521896,15.509659 2.19191,22.201385 C 2.189377,24.40036 2.189835,26.59938 2.194885,28.798843 C 34.050995,22.063782 65.789688,14.785873 97.540283,7.578323 C 101.40724,6.72345 105.21332,8.322708 108.98383,8.985367 C 138.69688,15.183777 168.35571,21.643234 198.11563,27.616379 C 198.12074,25.443619 198.12671,23.271484 198.13556,21.099258 C 168.31445,14.863785 138.52292,8.48616 108.69107,2.30217 C 105.88248,1.732788 103.08899,1.054108 100.41945,0 L 200,0 L 200,276 L 101.5744,276 C 117.93019,266.5163 133.03447,254.80785 145.91856,240.94791 C 166.94942,217.87643 182.38524,189.75952 190.81201,159.70854 C 195.6582,142.58264 198.94084,124.84824 198.60187,106.99213 C 198.51715,86.118301 198.41629,65.244919 198.2576,44.372177 C 198.18436,41.048813 198.15662,37.725403 198.12181,34.402054 C 166.49307,27.806122 134.82352,21.404083 103.25172,14.540222 C 99.406036,13.542633 95.540787,14.800613 91.800385,15.633469 C 61.9702,22.536346 32.031876,28.956146 2.117157,35.478561 C 2.136246,38.797409 2.153992,42.11615 2.166595,45.435577 C 2.222656,69.616867 1.242065,93.796371 1.747971,117.97354 C 4.282135,155.11566 17.737549,191.36083 39.408966,221.58411 C 55.179367,244.22339 76.692398,262.48279 100.64157,276 L 0,276 L 0,0 z "
     style="fill:none;stroke:#ffffff;stroke-width:0.1;stroke-linecap:butt;stroke-linejoin:miter;stroke-miterlimit:10"
     id="path10" />
  <path
     d="M 99.732178,0 L 100.41945,0 C 103.08899,1.054108 105.88248,1.732788 108.69107,2.30217 C 138.52292,8.48616 168.31445,14.863785 198.13556,21.099258 C 198.12671,23.271484 198.12074,25.443619 198.11563,27.616379 C 168.35571,21.643234 138.69688,15.183777 108.98383,8.985367 C 105.21332,8.322708 101.40724,6.72345 97.540283,7.578323 C 65.789688,14.785873 34.050995,22.063782 2.194885,28.798843 C 2.189835,26.59938 2.189377,24.40036 2.19191,22.201385 C 32.521896,15.509659 62.814133,8.647705 93.144897,1.959106 C 95.38559,1.470627 97.578979,0.790176 99.732178,0 z "
     style="fill:none;stroke:#07611c;stroke-width:0.1;stroke-linecap:butt;stroke-linejoin:miter;stroke-miterlimit:10"
     id="path14" />
  <path
     d="M 99.732178,0 L 100.41945,0 C 103.08899,1.054108 105.88248,1.732788 108.69107,2.30217 C 138.52292,8.48616 168.31445,14.863785 198.13556,21.099258 C 198.12671,23.271484 198.12074,25.443619 198.11563,27.616379 C 168.35571,21.643234 138.69688,15.183777 108.98383,8.985367 C 105.21332,8.322708 101.40724,6.72345 97.540283,7.578323 C 65.789688,14.785873 34.050995,22.063782 2.194885,28.798843 C 2.189835,26.59938 2.189377,24.40036 2.19191,22.201385 C 32.521896,15.509659 62.814133,8.647705 93.144897,1.959106 C 95.38559,1.470627 97.578979,0.790176 99.732178,0 z "
     style="fill:#07611c;fill-rule:nonzero;stroke:none"
     id="path16" />
  <path
     d="M 91.800385,15.633469 C 95.540787,14.800613 99.406036,13.542633 103.25172,14.540222 C 134.82352,21.404083 166.49307,27.806122 198.12181,34.402054 C 198.15662,37.725403 198.18436,41.048813 198.2576,44.372177 C 174.81876,34.73848 150.14153,27.856537 124.85773,25.510605 C 91.482346,22.252396 57.446381,26.032211 25.616257,36.598099 C 17.641556,39.113525 9.953293,42.412125 2.166595,45.435577 C 2.153992,42.11615 2.136246,38.797409 2.117157,35.478561 C 32.031876,28.956146 61.9702,22.536346 91.800385,15.633469 z "
     style="fill:none;stroke:#e61900;stroke-width:0.1;stroke-linecap:butt;stroke-linejoin:miter;stroke-miterlimit:10"
     id="path18" />
  <path
     d="M 91.800385,15.633469 C 95.540787,14.800613 99.406036,13.542633 103.25172,14.540222 C 134.82352,21.404083 166.49307,27.806122 198.12181,34.402054 C 198.15662,37.725403 198.18436,41.048813 198.2576,44.372177 C 174.81876,34.73848 150.14153,27.856537 124.85773,25.510605 C 91.482346,22.252396 57.446381,26.032211 25.616257,36.598099 C 17.641556,39.113525 9.953293,42.412125 2.166595,45.435577 C 2.153992,42.11615 2.136246,38.797409 2.117157,35.478561 C 32.031876,28.956146 61.9702,22.536346 91.800385,15.633469 z "
     style="fill:#e61900;fill-rule:nonzero;stroke:none"
     id="path20" />
  <path
     d="M 25.616257,36.598099 C 57.446381,26.032211 91.482346,22.252396 124.85773,25.510605 C 150.14153,27.856537 174.81876,34.73848 198.2576,44.372177 C 198.41629,65.244919 198.51715,86.118301 198.60187,106.99213 C 198.94084,124.84824 195.6582,142.58264 190.81201,159.70854 C 182.38524,189.75952 166.94942,217.87643 145.91856,240.94791 C 133.03447,254.80785 117.93019,266.5163 101.5744,276 L 100.64157,276 C 76.692398,262.48279 55.179367,244.22339 39.408966,221.58411 C 17.737549,191.36083 4.282135,155.11566 1.747971,117.97354 C 1.242065,93.796371 2.222656,69.616867 2.166595,45.435577 C 9.953293,42.412125 17.641556,39.113525 25.616257,36.598099 z "
     style="fill:none;stroke:#000000;stroke-width:0.1;stroke-linecap:butt;stroke-linejoin:miter;stroke-miterlimit:10"
     id="path22" />
  <path
     d="M 25.616257,36.598099 C 57.446381,26.032211 91.482346,22.252396 124.85773,25.510605 C 150.14153,27.856537 174.81876,34.73848 198.2576,44.372177 C 198.41629,65.244919 198.51715,86.118301 198.60187,106.99213 C 198.94084,124.84824 195.6582,142.58264 190.81201,159.70854 C 182.38524,189.75952 166.94942,217.87643 145.91856,240.94791 C 133.03447,254.80785 117.93019,266.5163 101.5744,276 L 100.64157,276 C 76.692398,262.48279 55.179367,244.22339 39.408966,221.58411 C 17.737549,191.36083 4.282135,155.11566 1.747971,117.97354 C 1.242065,93.796371 2.222656,69.616867 2.166595,45.435577 C 9.953293,42.412125 17.641556,39.113525 25.616257,36.598099 z "
     style="fill:#000000;fill-rule:nonzero;stroke:none"
     id="path24" />
  <path
     d="M 7.460587,49.008255 C 44.968643,32.090759 87.091873,25.365875 127.97148,30.334717 C 150.36839,32.917313 172.32103,38.98642 193.0181,47.894302 C 193.19638,66.262192 193.07994,84.632736 193.34018,103.00076 C 193.83789,125.46777 189.3098,147.80945 182.10732,169.01332 C 174.30241,192.38528 161.69367,214.0452 145.85346,232.87555 C 133.03122,247.44064 117.91213,260.04225 101.04031,269.661 C 79.110809,257.36752 59.596039,240.51656 44.982224,220.00304 C 33.436966,204.18562 24.122589,186.70204 17.771774,168.16597 C 10.727539,147.90224 6.468903,126.5159 6.831558,105.00285 C 7.058243,86.339233 7.419861,67.675369 7.460587,49.008255 z "
     style="fill:none;stroke:#debd19;stroke-width:0.1;stroke-linecap:butt;stroke-linejoin:miter;stroke-miterlimit:10"
     id="path26" />
  <path
     d="M 7.460587,49.008255 C 44.968643,32.090759 87.091873,25.365875 127.97148,30.334717 C 150.36839,32.917313 172.32103,38.98642 193.0181,47.894302 C 193.19638,66.262192 193.07994,84.632736 193.34018,103.00076 C 193.83789,125.46777 189.3098,147.80945 182.10732,169.01332 C 174.30241,192.38528 161.69367,214.0452 145.85346,232.87555 C 133.03122,247.44064 117.91213,260.04225 101.04031,269.661 C 79.110809,257.36752 59.596039,240.51656 44.982224,220.00304 C 33.436966,204.18562 24.122589,186.70204 17.771774,168.16597 C 10.727539,147.90224 6.468903,126.5159 6.831558,105.00285 C 7.058243,86.339233 7.419861,67.675369 7.460587,49.008255 z "
     style="fill:#debd19;fill-rule:nonzero;stroke:none"
     id="path28" />
  <path
     d="M 92.180557,34.301376 C 93.919678,36.490662 94.677322,39.161179 95.05394,41.887772 C 95.799301,39.496979 96.338394,37.047455 96.999893,34.632996 C 99.548477,36.645706 101.43256,39.976685 104.93187,40.328873 C 107.82213,40.650253 110.04184,42.53244 112.28087,44.195648 C 115.76921,44.401672 119.30424,44.110275 122.7543,44.902252 C 120.1266,46.071335 117.35805,46.863525 114.65694,47.833679 C 117.66835,49.670425 120.27419,52.181168 123.6257,53.429749 C 126.52397,54.386871 127.77527,57.383804 129.32468,59.735382 C 125.58536,57.574142 121.89239,54.783371 117.29013,55.279022 C 118.99936,59.544403 123.90361,59.248291 127.58089,60.435669 C 129.05678,61.469055 130.02649,63.040146 131.15099,64.416748 C 129.34071,63.654343 127.64171,62.648666 125.80249,61.96199 C 123.44455,61.666214 121.07648,62.157745 118.7476,62.471756 C 122.24983,63.979279 126.01119,65.171112 128.84813,67.850296 C 124.79373,67.732315 120.85347,66.615036 117.14218,65.03688 C 120.63576,69.638443 124.13075,74.348953 126.49542,79.652191 C 124.45512,78.439941 122.50722,77.084167 120.47214,75.86795 C 122.14031,79.58371 125.01791,82.49884 129.0256,83.585083 C 126.78528,83.56871 124.32776,83.97377 122.36681,82.61322 C 119.87369,81.09877 117.37761,79.503693 114.4751,78.900848 C 115.82288,81.424423 118.12132,83.104706 120.54762,84.491837 C 123.05551,85.921402 124.34824,88.599609 125.65616,91.041672 C 123.07765,89.577347 120.57741,87.973022 117.90063,86.690643 C 117.99533,90.98558 122.34633,92.25679 125.4209,94.115814 C 123.95963,94.425842 122.49767,94.726288 121.03503,95.017166 C 121.27878,95.575867 121.76627,96.693268 122.01,97.251968 C 119.10071,96.629639 116.1329,96.254898 113.1554,96.4785 C 116.08765,98.450012 118.87779,100.69235 122.04309,102.28957 C 123.90758,102.22855 125.7208,101.73036 127.55985,101.44965 C 126.06873,102.53468 124.65375,103.78647 122.92546,104.48523 C 119.39447,104.39392 116.24452,102.45606 112.8167,101.78105 C 114.7888,103.42042 116.8317,104.97342 118.79628,106.6252 C 117.95984,106.78259 116.28696,107.09738 115.45052,107.25478 C 116.64229,108.91872 117.77638,110.62312 118.81657,112.38959 C 116.26038,111.35526 113.99838,109.77737 111.6134,108.42862 C 108.99641,107.18793 106.14462,106.54286 103.51115,105.33615 C 105.76608,114.09522 109.85997,123.21335 117.83408,128.15269 C 126.22272,133.72693 134.17145,140.95351 137.16754,150.90483 C 142.36343,149.18109 147.76184,146.20906 149.76239,140.77765 C 153.27852,132.1384 149.92978,122.89723 147.39622,114.49301 C 144.70688,105.47202 149.63086,95.43869 157.71759,91.023346 C 155.79179,94.044983 153.24097,96.725006 152.03598,100.1619 C 150.83922,103.14354 151.11499,106.41266 151.15454,109.55096 C 154.36876,104.97421 158.18745,100.88741 162.06885,96.87735 C 160.72568,100.98459 158.33225,104.59447 156.35092,108.39668 C 154.81006,111.10158 155.17152,114.28735 155.36627,117.25627 C 157.9384,113.66977 160.82953,110.33708 163.76782,107.0493 C 163.15901,110.58171 161.51778,113.75938 160.05351,116.98535 C 156.86795,126.31059 163.21278,136.181 159.49416,145.43942 C 157.81483,149.907 153.61638,152.54463 149.54776,154.57626 C 152.10454,159.87431 149.98874,165.61029 150.19145,171.16739 C 148.15456,166.32355 148.74118,160.59848 145.58388,156.23665 C 146.23964,160.52113 147.96088,165.03215 146.14388,169.27959 C 144.05173,174.21484 139.9691,178.32451 139.67668,183.94916 C 139.35792,181.18553 138.49672,178.29802 139.53882,175.58635 C 141.07642,171.32927 143.56569,167.0855 142.48042,162.3755 C 140.7265,165.20729 140.29096,168.56265 139.29919,171.68517 C 137.00089,167.09772 139.2854,162.13202 138.65491,157.3344 C 136.42123,160.42822 136.49551,164.46478 134.77303,167.80611 C 132.47437,172.87236 128.05193,176.47304 123.64606,179.65392 C 121.81715,181.12215 119.4861,182.65626 119.30218,185.23596 C 118.22974,190.04044 125.0547,194.18823 121.90445,198.8045 C 113.806,203.98675 106.68781,211.09036 102.87041,220.00316 C 100.45813,223.13419 96.138962,223.7767 92.426132,223.51645 C 92.253601,217.59755 96.469711,213.23795 100.49767,209.52692 C 105.70685,205.47846 110.65047,200.69481 114.07332,195.05364 C 109.35051,188.37354 104.48561,180.79364 105.15324,172.23373 C 105.40163,165.77892 111.6777,161.39198 111.08562,154.70934 C 109.40262,158.62247 108.44531,163.2451 104.53476,165.64108 C 100.86647,161.40392 99.091537,155.86346 95.175522,151.8288 C 92.479034,148.75674 87.925201,148.82715 84.969894,146.10727 C 79.209534,141.39246 73.22226,136.19568 70.378265,129.13033 C 68.079758,128.70554 65.514984,128.8284 63.525558,127.43341 C 59.036606,123.91626 53.881668,121.36972 48.920868,118.60822 C 46.371231,118.74683 47.642075,121.45326 48.001938,122.99051 C 49.525238,127.33318 49.579926,132.10471 51.807297,136.21069 C 52.677216,138.91847 56.109802,139.55808 57.084488,142.20801 C 58.318909,145.62439 57.260101,149.24986 55.808685,152.40927 C 51.134918,150.32507 49.019287,145.48999 46.61586,141.3273 C 43.629974,136.87955 44.048401,131.28126 42.954788,126.24152 C 40.510361,128.73138 38.286835,131.6844 34.835831,132.83319 C 34.909622,129.10802 35.32077,125.40546 35.620483,121.69661 C 35.657867,117.01186 38.239883,112.92992 39.502136,108.53453 C 41.500015,103.06857 42.04155,97.066269 44.951691,91.953262 C 46.427216,89.025131 50.511215,87.885452 53.238556,89.760269 C 57.651825,92.739044 61.889313,96.185135 66.907181,98.102692 C 70.509888,96.112198 73.380447,93.056671 76.774353,90.744232 C 79.069778,88.38121 80.939682,85.617706 83.299179,83.296249 C 88.034729,78.352142 91.073807,72.006744 92.657318,65.389938 C 89.397003,64.992004 86.147766,64.525742 82.912094,63.968872 C 79.927155,63.281967 77.07045,64.719818 74.13089,64.957855 C 72.27124,63.973984 70.621445,62.646576 68.840225,61.535507 C 69.003754,58.693451 69.730103,55.863815 71.710632,53.722015 C 73.578156,50.832062 77.57634,51.898773 80.236816,50.256668 C 83.759933,48.317612 87.019791,45.930023 90.591141,44.061234 C 87.058823,42.080093 82.985657,42.851364 79.133881,42.751709 C 82.613922,40.625366 86.290985,38.117706 90.593704,38.702667 C 91.084686,37.222061 91.607224,35.752167 92.180557,34.301376 z "
     style="fill:none;stroke:#000000;stroke-width:0.1;stroke-linecap:butt;stroke-linejoin:miter;stroke-miterlimit:10"
     id="path30" />
  <path
     d="M 92.180557,34.301376 C 93.919678,36.490662 94.677322,39.161179 95.05394,41.887772 C 95.799301,39.496979 96.338394,37.047455 96.999893,34.632996 C 99.548477,36.645706 101.43256,39.976685 104.93187,40.328873 C 107.82213,40.650253 110.04184,42.53244 112.28087,44.195648 C 115.76921,44.401672 119.30424,44.110275 122.7543,44.902252 C 120.1266,46.071335 117.35805,46.863525 114.65694,47.833679 C 117.66835,49.670425 120.27419,52.181168 123.6257,53.429749 C 126.52397,54.386871 127.77527,57.383804 129.32468,59.735382 C 125.58536,57.574142 121.89239,54.783371 117.29013,55.279022 C 118.99936,59.544403 123.90361,59.248291 127.58089,60.435669 C 129.05678,61.469055 130.02649,63.040146 131.15099,64.416748 C 129.34071,63.654343 127.64171,62.648666 125.80249,61.96199 C 123.44455,61.666214 121.07648,62.157745 118.7476,62.471756 C 122.24983,63.979279 126.01119,65.171112 128.84813,67.850296 C 124.79373,67.732315 120.85347,66.615036 117.14218,65.03688 C 120.63576,69.638443 124.13075,74.348953 126.49542,79.652191 C 124.45512,78.439941 122.50722,77.084167 120.47214,75.86795 C 122.14031,79.58371 125.01791,82.49884 129.0256,83.585083 C 126.78528,83.56871 124.32776,83.97377 122.36681,82.61322 C 119.87369,81.09877 117.37761,79.503693 114.4751,78.900848 C 115.82288,81.424423 118.12132,83.104706 120.54762,84.491837 C 123.05551,85.921402 124.34824,88.599609 125.65616,91.041672 C 123.07765,89.577347 120.57741,87.973022 117.90063,86.690643 C 117.99533,90.98558 122.34633,92.25679 125.4209,94.115814 C 123.95963,94.425842 122.49767,94.726288 121.03503,95.017166 C 121.27878,95.575867 121.76627,96.693268 122.01,97.251968 C 119.10071,96.629639 116.1329,96.254898 113.1554,96.4785 C 116.08765,98.450012 118.87779,100.69235 122.04309,102.28957 C 123.90758,102.22855 125.7208,101.73036 127.55985,101.44965 C 126.06873,102.53468 124.65375,103.78647 122.92546,104.48523 C 119.39447,104.39392 116.24452,102.45606 112.8167,101.78105 C 114.7888,103.42042 116.8317,104.97342 118.79628,106.6252 C 117.95984,106.78259 116.28696,107.09738 115.45052,107.25478 C 116.64229,108.91872 117.77638,110.62312 118.81657,112.38959 C 116.26038,111.35526 113.99838,109.77737 111.6134,108.42862 C 108.99641,107.18793 106.14462,106.54286 103.51115,105.33615 C 105.76608,114.09522 109.85997,123.21335 117.83408,128.15269 C 126.22272,133.72693 134.17145,140.95351 137.16754,150.90483 C 142.36343,149.18109 147.76184,146.20906 149.76239,140.77765 C 153.27852,132.1384 149.92978,122.89723 147.39622,114.49301 C 144.70688,105.47202 149.63086,95.43869 157.71759,91.023346 C 155.79179,94.044983 153.24097,96.725006 152.03598,100.1619 C 150.83922,103.14354 151.11499,106.41266 151.15454,109.55096 C 154.36876,104.97421 158.18745,100.88741 162.06885,96.87735 C 160.72568,100.98459 158.33225,104.59447 156.35092,108.39668 C 154.81006,111.10158 155.17152,114.28735 155.36627,117.25627 C 157.9384,113.66977 160.82953,110.33708 163.76782,107.0493 C 163.15901,110.58171 161.51778,113.75938 160.05351,116.98535 C 156.86795,126.31059 163.21278,136.181 159.49416,145.43942 C 157.81483,149.907 153.61638,152.54463 149.54776,154.57626 C 152.10454,159.87431 149.98874,165.61029 150.19145,171.16739 C 148.15456,166.32355 148.74118,160.59848 145.58388,156.23665 C 146.23964,160.52113 147.96088,165.03215 146.14388,169.27959 C 144.05173,174.21484 139.9691,178.32451 139.67668,183.94916 C 139.35792,181.18553 138.49672,178.29802 139.53882,175.58635 C 141.07642,171.32927 143.56569,167.0855 142.48042,162.3755 C 140.7265,165.20729 140.29096,168.56265 139.29919,171.68517 C 137.00089,167.09772 139.2854,162.13202 138.65491,157.3344 C 136.42123,160.42822 136.49551,164.46478 134.77303,167.80611 C 132.47437,172.87236 128.05193,176.47304 123.64606,179.65392 C 121.81715,181.12215 119.4861,182.65626 119.30218,185.23596 C 118.22974,190.04044 125.0547,194.18823 121.90445,198.8045 C 113.806,203.98675 106.68781,211.09036 102.87041,220.00316 C 100.45813,223.13419 96.138962,223.7767 92.426132,223.51645 C 92.253601,217.59755 96.469711,213.23795 100.49767,209.52692 C 105.70685,205.47846 110.65047,200.69481 114.07332,195.05364 C 109.35051,188.37354 104.48561,180.79364 105.15324,172.23373 C 105.40163,165.77892 111.6777,161.39198 111.08562,154.70934 C 109.40262,158.62247 108.44531,163.2451 104.53476,165.64108 C 100.86647,161.40392 99.091537,155.86346 95.175522,151.8288 C 92.479034,148.75674 87.925201,148.82715 84.969894,146.10727 C 79.209534,141.39246 73.22226,136.19568 70.378265,129.13033 C 68.079758,128.70554 65.514984,128.8284 63.525558,127.43341 C 59.036606,123.91626 53.881668,121.36972 48.920868,118.60822 C 46.371231,118.74683 47.642075,121.45326 48.001938,122.99051 C 49.525238,127.33318 49.579926,132.10471 51.807297,136.21069 C 52.677216,138.91847 56.109802,139.55808 57.084488,142.20801 C 58.318909,145.62439 57.260101,149.24986 55.808685,152.40927 C 51.134918,150.32507 49.019287,145.48999 46.61586,141.3273 C 43.629974,136.87955 44.048401,131.28126 42.954788,126.24152 C 40.510361,128.73138 38.286835,131.6844 34.835831,132.83319 C 34.909622,129.10802 35.32077,125.40546 35.620483,121.69661 C 35.657867,117.01186 38.239883,112.92992 39.502136,108.53453 C 41.500015,103.06857 42.04155,97.066269 44.951691,91.953262 C 46.427216,89.025131 50.511215,87.885452 53.238556,89.760269 C 57.651825,92.739044 61.889313,96.185135 66.907181,98.102692 C 70.509888,96.112198 73.380447,93.056671 76.774353,90.744232 C 79.069778,88.38121 80.939682,85.617706 83.299179,83.296249 C 88.034729,78.352142 91.073807,72.006744 92.657318,65.389938 C 89.397003,64.992004 86.147766,64.525742 82.912094,63.968872 C 79.927155,63.281967 77.07045,64.719818 74.13089,64.957855 C 72.27124,63.973984 70.621445,62.646576 68.840225,61.535507 C 69.003754,58.693451 69.730103,55.863815 71.710632,53.722015 C 73.578156,50.832062 77.57634,51.898773 80.236816,50.256668 C 83.759933,48.317612 87.019791,45.930023 90.591141,44.061234 C 87.058823,42.080093 82.985657,42.851364 79.133881,42.751709 C 82.613922,40.625366 86.290985,38.117706 90.593704,38.702667 C 91.084686,37.222061 91.607224,35.752167 92.180557,34.301376 z "
     style="fill:#000000;fill-rule:nonzero;stroke:none"
     id="path32" />
  <path
     d="M 84.309128,50.130524 C 87.639832,49.923492 84.042114,54.187149 82.313797,52.556641 C 81.58223,51.32843 83.291092,50.309036 84.309128,50.130524 z "
     style="fill:none;stroke:#827a38;stroke-width:0.1;stroke-linecap:butt;stroke-linejoin:miter;stroke-miterlimit:10"
     id="path34" />
  <path
     d="M 84.309128,50.130524 C 87.639832,49.923492 84.042114,54.187149 82.313797,52.556641 C 81.58223,51.32843 83.291092,50.309036 84.309128,50.130524 z "
     style="fill:#827a38;fill-rule:nonzero;stroke:none"
     id="path36" />
  <path
     d="M 88.349594,50.769913 C 89.89357,50.661591 91.662094,49.856339 93.025772,50.973541 C 94.342117,51.547867 93.83342,53.383942 92.882278,54.084946 C 91.013184,53.54863 89.711197,52.053452 88.349594,50.769913 z "
     style="fill:none;stroke:#debd19;stroke-width:0.1;stroke-linecap:butt;stroke-linejoin:miter;stroke-miterlimit:10"
     id="path38" />
  <path
     d="M 88.349594,50.769913 C 89.89357,50.661591 91.662094,49.856339 93.025772,50.973541 C 94.342117,51.547867 93.83342,53.383942 92.882278,54.084946 C 91.013184,53.54863 89.711197,52.053452 88.349594,50.769913 z "
     style="fill:#debd19;fill-rule:nonzero;stroke:none"
     id="path40" />
  <path
     d="M 104.86437,55.293304 C 105.81859,54.102112 106.87653,53.001266 107.88567,51.857208 C 108.18543,52.900879 108.47768,53.947678 108.76245,54.997604 C 107.4884,55.318695 106.16902,55.416351 104.86437,55.293304 z "
     style="fill:none;stroke:#debd19;stroke-width:0.1;stroke-linecap:butt;stroke-linejoin:miter;stroke-miterlimit:10"
     id="path42" />
  <path
     d="M 104.86437,55.293304 C 105.81859,54.102112 106.87653,53.001266 107.88567,51.857208 C 108.18543,52.900879 108.47768,53.947678 108.76245,54.997604 C 107.4884,55.318695 106.16902,55.416351 104.86437,55.293304 z "
     style="fill:#debd19;fill-rule:nonzero;stroke:none"
     id="path44" />
  <path
     d="M 73.297348,55.841217 C 75.857071,54.926697 74.998245,59.362976 72.945602,59.08429 C 71.354553,58.654129 72.179825,56.350357 73.297348,55.841217 z "
     style="fill:none;stroke:#debd19;stroke-width:0.1;stroke-linecap:butt;stroke-linejoin:miter;stroke-miterlimit:10"
     id="path46" />
  <path
     d="M 73.297348,55.841217 C 75.857071,54.926697 74.998245,59.362976 72.945602,59.08429 C 71.354553,58.654129 72.179825,56.350357 73.297348,55.841217 z "
     style="fill:#debd19;fill-rule:nonzero;stroke:none"
     id="path48" />
  <path
     d="M 91.307831,60.041061 C 92.109802,58.555511 94.585251,59.927185 93.351562,61.312943 C 92.494553,62.761307 90.075531,61.472794 91.307831,60.041061 z "
     style="fill:none;stroke:#debd19;stroke-width:0.1;stroke-linecap:butt;stroke-linejoin:miter;stroke-miterlimit:10"
     id="path50" />
  <path
     d="M 91.307831,60.041061 C 92.109802,58.555511 94.585251,59.927185 93.351562,61.312943 C 92.494553,62.761307 90.075531,61.472794 91.307831,60.041061 z "
     style="fill:#debd19;fill-rule:nonzero;stroke:none"
     id="path52" />
  <path
     d="M 98.097076,60.301758 C 99.351196,61.040283 99.292816,61.708878 97.921951,62.30751 C 96.659409,61.57077 96.717773,60.902176 98.097076,60.301758 z "
     style="fill:none;stroke:#827a38;stroke-width:0.1;stroke-linecap:butt;stroke-linejoin:miter;stroke-miterlimit:10"
     id="path54" />
  <path
     d="M 98.097076,60.301758 C 99.351196,61.040283 99.292816,61.708878 97.921951,62.30751 C 96.659409,61.57077 96.717773,60.902176 98.097076,60.301758 z "
     style="fill:#827a38;fill-rule:nonzero;stroke:none"
     id="path56" />
  <path
     d="M 99.278961,63.011597 C 102.33304,62.828156 98.713577,66.766006 97.214172,65.315704 C 96.652328,64.092468 98.334122,63.261917 99.278961,63.011597 z "
     style="fill:none;stroke:#827a38;stroke-width:0.1;stroke-linecap:butt;stroke-linejoin:miter;stroke-miterlimit:10"
     id="path58" />
  <path
     d="M 99.278961,63.011597 C 102.33304,62.828156 98.713577,66.766006 97.214172,65.315704 C 96.652328,64.092468 98.334122,63.261917 99.278961,63.011597 z "
     style="fill:#827a38;fill-rule:nonzero;stroke:none"
     id="path60" />
  <path
     d="M 94.855789,72.780594 C 95.52861,72.393738 96.874283,71.62001 97.547104,71.233154 C 96.284576,76.867508 93.135834,82.095764 88.967804,86.064209 C 90.38382,81.443375 92.080368,76.769806 94.855789,72.780594 z "
     style="fill:none;stroke:#debd19;stroke-width:0.1;stroke-linecap:butt;stroke-linejoin:miter;stroke-miterlimit:10"
     id="path62" />
  <path
     d="M 94.855789,72.780594 C 95.52861,72.393738 96.874283,71.62001 97.547104,71.233154 C 96.284576,76.867508 93.135834,82.095764 88.967804,86.064209 C 90.38382,81.443375 92.080368,76.769806 94.855789,72.780594 z "
     style="fill:#debd19;fill-rule:nonzero;stroke:none"
     id="path64" />
  <path
     d="M 114.28134,88.15947 C 115.27638,86.966415 117.49857,88.543884 116.49526,89.834396 C 115.49545,91.027115 113.27228,89.4505 114.28134,88.15947 z "
     style="fill:none;stroke:#827a38;stroke-width:0.1;stroke-linecap:butt;stroke-linejoin:miter;stroke-miterlimit:10"
     id="path66" />
  <path
     d="M 114.28134,88.15947 C 115.27638,86.966415 117.49857,88.543884 116.49526,89.834396 C 115.49545,91.027115 113.27228,89.4505 114.28134,88.15947 z "
     style="fill:#827a38;fill-rule:nonzero;stroke:none"
     id="path68" />
  <path
     d="M 79.278168,94.290527 C 82.802704,92.661163 87.145157,92.388336 90.125381,95.266785 C 86.516632,94.852371 82.903152,94.512009 79.278168,94.290527 z "
     style="fill:none;stroke:#debd19;stroke-width:0.1;stroke-linecap:butt;stroke-linejoin:miter;stroke-miterlimit:10"
     id="path70" />
  <path
     d="M 79.278168,94.290527 C 82.802704,92.661163 87.145157,92.388336 90.125381,95.266785 C 86.516632,94.852371 82.903152,94.512009 79.278168,94.290527 z "
     style="fill:#debd19;fill-rule:nonzero;stroke:none"
     id="path72" />
  <path
     d="M 45.278732,98.329819 C 47.325638,98.555801 45.88562,102.35547 44.157822,101.46111 C 43.22229,100.46364 44.028931,98.61377 45.278732,98.329819 z "
     style="fill:none;stroke:#827a38;stroke-width:0.1;stroke-linecap:butt;stroke-linejoin:miter;stroke-miterlimit:10"
     id="path74" />
  <path
     d="M 45.278732,98.329819 C 47.325638,98.555801 45.88562,102.35547 44.157822,101.46111 C 43.22229,100.46364 44.028931,98.61377 45.278732,98.329819 z "
     style="fill:#827a38;fill-rule:nonzero;stroke:none"
     id="path76" />
  <path
     d="M 45.646606,107.6718 C 46.924591,105.18126 48.029388,102.60908 49.149979,100.04658 C 52.394058,102.9198 55.276047,106.17427 58.020828,109.52066 C 53.91008,108.81288 49.820114,107.92746 45.646606,107.6718 z "
     style="fill:none;stroke:#debd19;stroke-width:0.1;stroke-linecap:butt;stroke-linejoin:miter;stroke-miterlimit:10"
     id="path78" />
  <path
     d="M 45.646606,107.6718 C 46.924591,105.18126 48.029388,102.60908 49.149979,100.04658 C 52.394058,102.9198 55.276047,106.17427 58.020828,109.52066 C 53.91008,108.81288 49.820114,107.92746 45.646606,107.6718 z "
     style="fill:#debd19;fill-rule:nonzero;stroke:none"
     id="path80" />
  <path
     d="M 92.411957,101.0381 C 93.762161,99.453354 95.876968,101.93642 94.455017,103.22836 C 93.096893,104.7735 90.998367,102.33328 92.411957,101.0381 z "
     style="fill:none;stroke:#debd19;stroke-width:0.1;stroke-linecap:butt;stroke-linejoin:miter;stroke-miterlimit:10"
     id="path82" />
  <path
     d="M 92.411957,101.0381 C 93.762161,99.453354 95.876968,101.93642 94.455017,103.22836 C 93.096893,104.7735 90.998367,102.33328 92.411957,101.0381 z "
     style="fill:#debd19;fill-rule:nonzero;stroke:none"
     id="path84" />
  <path
     d="M 62.334381,111.91737 C 62.966293,108.42224 64.336761,105.05418 66.563751,102.26839 C 65.669022,105.65433 64.986313,109.39607 62.334381,111.91737 z "
     style="fill:none;stroke:#debd19;stroke-width:0.1;stroke-linecap:butt;stroke-linejoin:miter;stroke-miterlimit:10"
     id="path86" />
  <path
     d="M 62.334381,111.91737 C 62.966293,108.42224 64.336761,105.05418 66.563751,102.26839 C 65.669022,105.65433 64.986313,109.39607 62.334381,111.91737 z "
     style="fill:#debd19;fill-rule:nonzero;stroke:none"
     id="path88" />
  <path
     d="M 100.89565,109.18419 C 102.86334,111.54279 103.44759,114.60765 104.6447,117.35889 C 105.78084,120.04602 107.42009,122.48061 108.60066,125.14945 C 103.37553,121.78198 100.5574,115.28351 100.89565,109.18419 z "
     style="fill:none;stroke:#debd19;stroke-width:0.1;stroke-linecap:butt;stroke-linejoin:miter;stroke-miterlimit:10"
     id="path90" />
  <path
     d="M 100.89565,109.18419 C 102.86334,111.54279 103.44759,114.60765 104.6447,117.35889 C 105.78084,120.04602 107.42009,122.48061 108.60066,125.14945 C 103.37553,121.78198 100.5574,115.28351 100.89565,109.18419 z "
     style="fill:#debd19;fill-rule:nonzero;stroke:none"
     id="path92" />
  <path
     d="M 45.176529,126.18445 C 48.517792,126.36481 43.608505,129.13742 45.176529,126.18445 z "
     style="fill:none;stroke:#827a38;stroke-width:0.1;stroke-linecap:butt;stroke-linejoin:miter;stroke-miterlimit:10"
     id="path94" />
  <path
     d="M 45.176529,126.18445 C 48.517792,126.36481 43.608505,129.13742 45.176529,126.18445 z "
     style="fill:#827a38;fill-rule:nonzero;stroke:none"
     id="path96" />
  <path
     d="M 154.90505,129.20573 C 158.17784,136.38483 155.47986,146.55176 147.85269,149.76631 C 149.62428,146.56932 152.07021,143.72246 153.25346,140.21982 C 154.51588,136.68187 154.36963,132.87552 154.90505,129.20573 z "
     style="fill:none;stroke:#debd19;stroke-width:0.1;stroke-linecap:butt;stroke-linejoin:miter;stroke-miterlimit:10"
     id="path98" />
  <path
     d="M 154.90505,129.20573 C 158.17784,136.38483 155.47986,146.55176 147.85269,149.76631 C 149.62428,146.56932 152.07021,143.72246 153.25346,140.21982 C 154.51588,136.68187 154.36963,132.87552 154.90505,129.20573 z "
     style="fill:#debd19;fill-rule:nonzero;stroke:none"
     id="path100" />
  <path
     d="M 77.78537,133.43221 C 78.505157,133.30832 79.944748,133.06053 80.664551,132.93663 C 84.10611,137.31592 88.442383,140.96254 91.424911,145.70052 C 86.076859,142.63545 81.663513,138.16931 77.78537,133.43221 z "
     style="fill:none;stroke:#debd19;stroke-width:0.1;stroke-linecap:butt;stroke-linejoin:miter;stroke-miterlimit:10"
     id="path102" />
  <path
     d="M 77.78537,133.43221 C 78.505157,133.30832 79.944748,133.06053 80.664551,132.93663 C 84.10611,137.31592 88.442383,140.96254 91.424911,145.70052 C 86.076859,142.63545 81.663513,138.16931 77.78537,133.43221 z "
     style="fill:#debd19;fill-rule:nonzero;stroke:none"
     id="path104" />
  <path
     d="M 108.05345,138.40999 C 111.28746,136.51369 109.18723,143.22017 107.51119,140.05907 C 107.64674,139.64681 107.91789,138.82227 108.05345,138.40999 z "
     style="fill:none;stroke:#debd19;stroke-width:0.1;stroke-linecap:butt;stroke-linejoin:miter;stroke-miterlimit:10"
     id="path106" />
  <path
     d="M 108.05345,138.40999 C 111.28746,136.51369 109.18723,143.22017 107.51119,140.05907 C 107.64674,139.64681 107.91789,138.82227 108.05345,138.40999 z "
     style="fill:#debd19;fill-rule:nonzero;stroke:none"
     id="path108" />
  <path
     d="M 88.746536,150.72284 C 91.711517,151.56195 94.82663,152.73883 96.531921,155.49521 C 99.132263,159.43897 100.88455,163.97704 104.57858,167.10785 C 104.4843,170.659 103.97495,174.22513 104.43338,177.77577 C 104.89059,180.86102 106.56087,183.55673 107.68643,186.41873 C 108.65834,188.5237 106.61884,190.40984 105.89774,192.27284 C 100.67152,191.1712 95.932953,188.57077 90.771393,187.26878 C 87.047745,186.27707 83.091476,186.81929 79.419418,185.56865 C 76.092361,184.36504 72.676895,187.28256 69.403381,185.71124 C 66,184.67433 63.785446,181.76642 62.13588,178.78949 C 68.884659,175.89598 75.95015,178.81899 82.857941,179.14529 C 88.79805,180.78711 94.750595,183.43628 101.06775,182.11938 C 99.891953,177.72278 96.302948,174.66808 94.418869,170.631 C 91.322235,164.4128 89.674484,157.5762 88.746536,150.72284 z "
     style="fill:none;stroke:#000000;stroke-width:0.1;stroke-linecap:butt;stroke-linejoin:miter;stroke-miterlimit:10"
     id="path110" />
  <path
     d="M 88.746536,150.72284 C 91.711517,151.56195 94.82663,152.73883 96.531921,155.49521 C 99.132263,159.43897 100.88455,163.97704 104.57858,167.10785 C 104.4843,170.659 103.97495,174.22513 104.43338,177.77577 C 104.89059,180.86102 106.56087,183.55673 107.68643,186.41873 C 108.65834,188.5237 106.61884,190.40984 105.89774,192.27284 C 100.67152,191.1712 95.932953,188.57077 90.771393,187.26878 C 87.047745,186.27707 83.091476,186.81929 79.419418,185.56865 C 76.092361,184.36504 72.676895,187.28256 69.403381,185.71124 C 66,184.67433 63.785446,181.76642 62.13588,178.78949 C 68.884659,175.89598 75.95015,178.81899 82.857941,179.14529 C 88.79805,180.78711 94.750595,183.43628 101.06775,182.11938 C 99.891953,177.72278 96.302948,174.66808 94.418869,170.631 C 91.322235,164.4128 89.674484,157.5762 88.746536,150.72284 z "
     style="fill:#000000;fill-rule:nonzero;stroke:none"
     id="path112" />
  <path
     d="M 111.15662,152.02618 C 114.48967,152.1032 109.66399,155.05801 111.15662,152.02618 z "
     style="fill:none;stroke:#827a38;stroke-width:0.1;stroke-linecap:butt;stroke-linejoin:miter;stroke-miterlimit:10"
     id="path114" />
  <path
     d="M 111.15662,152.02618 C 114.48967,152.1032 109.66399,155.05801 111.15662,152.02618 z "
     style="fill:#827a38;fill-rule:nonzero;stroke:none"
     id="path116" />
  <path
     d="M 132.26936,156.74751 C 133.71396,156.40549 133.95262,158.85429 132.87242,159.4135 C 131.42639,159.76543 131.21194,157.30426 132.26936,156.74751 z "
     style="fill:none;stroke:#debd19;stroke-width:0.1;stroke-linecap:butt;stroke-linejoin:miter;stroke-miterlimit:10"
     id="path118" />
  <path
     d="M 132.26936,156.74751 C 133.71396,156.40549 133.95262,158.85429 132.87242,159.4135 C 131.42639,159.76543 131.21194,157.30426 132.26936,156.74751 z "
     style="fill:#debd19;fill-rule:nonzero;stroke:none"
     id="path120" />
  <path
     d="M 107.94971,172.58228 C 107.66345,169.94229 108.44905,167.43088 110.24519,165.47537 C 110.33063,168.06259 109.4268,170.48897 107.94971,172.58228 z "
     style="fill:none;stroke:#827a38;stroke-width:0.1;stroke-linecap:butt;stroke-linejoin:miter;stroke-miterlimit:10"
     id="path122" />
  <path
     d="M 107.94971,172.58228 C 107.66345,169.94229 108.44905,167.43088 110.24519,165.47537 C 110.33063,168.06259 109.4268,170.48897 107.94971,172.58228 z "
     style="fill:#827a38;fill-rule:nonzero;stroke:none"
     id="path124" />
  <path
     d="M 110.30716,182.35512 C 112.00459,181.42129 113.26363,184.3382 112.006,185.40804 C 110.38495,186.2399 108.92598,183.37715 110.30716,182.35512 z "
     style="fill:none;stroke:#debd19;stroke-width:0.1;stroke-linecap:butt;stroke-linejoin:miter;stroke-miterlimit:10"
     id="path126" />
  <path
     d="M 110.30716,182.35512 C 112.00459,181.42129 113.26363,184.3382 112.006,185.40804 C 110.38495,186.2399 108.92598,183.37715 110.30716,182.35512 z "
     style="fill:#debd19;fill-rule:nonzero;stroke:none"
     id="path128" />
  <path
     d="M 113.22514,200.38567 C 114.81026,201.47972 111.98578,204.45445 110.46907,203.74205 C 110.03098,202.22044 111.83432,200.65791 113.22514,200.38567 z "
     style="fill:none;stroke:#827a38;stroke-width:0.1;stroke-linecap:butt;stroke-linejoin:miter;stroke-miterlimit:10"
     id="path130" />
  <path
     d="M 113.22514,200.38567 C 114.81026,201.47972 111.98578,204.45445 110.46907,203.74205 C 110.03098,202.22044 111.83432,200.65791 113.22514,200.38567 z "
     style="fill:#827a38;fill-rule:nonzero;stroke:none"
     id="path132" />
  <path
     d="M 143.00612,205.5217 C 147.59601,205.62241 151.93425,203.93892 156.40651,203.19327 C 152.84805,206.02718 148.47134,207.70503 143.95309,208.13689 C 142.60323,208.45157 141.03169,208.21736 139.85881,209.05521 C 137.8305,211.39577 136.89269,214.42749 135.67404,217.22241 C 137.65738,216.85576 139.63643,216.45697 141.63715,216.1788 C 139.70438,218.27095 137.13103,219.44928 134.61397,220.65685 C 131.63988,225.55839 129.30219,232.16866 122.97618,233.50894 C 116.55495,235.32381 109.49754,227.76737 112.51413,221.60133 C 113.44952,219.23364 116.16054,219.55487 118.22496,219.36325 C 118.2594,220.84273 119.89435,223.15234 117.71735,223.75172 C 116.22943,224.03545 114.73558,224.27937 113.23579,224.48349 C 113.69417,227.98663 116.31427,231.04886 120.07918,230.81189 C 126.10948,230.91377 128.6734,224.53049 130.64905,219.88922 C 129.53209,219.84296 127.29814,219.75041 126.18117,219.70415 C 127.96417,218.64226 129.87286,217.78931 131.58345,216.60872 C 133.24866,213.82915 134.52681,210.83591 136.13731,208.02408 C 132.32513,207.65752 128.35393,206.4111 124.57523,207.52316 C 122.97549,208.11998 120.79071,210.96712 123.24963,211.87186 C 125.43163,211.97737 127.47014,211.02333 129.55034,210.51143 C 127.7314,212.6805 125.4082,215.67758 122.1739,214.29097 C 119.91318,213.85794 119.93793,211.18304 120.45502,209.43939 C 121.36256,206.82074 124.07512,205.40027 126.60527,204.75522 C 132.0685,203.45549 137.52351,205.6008 143.00612,205.5217 z "
     style="fill:none;stroke:#000000;stroke-width:0.1;stroke-linecap:butt;stroke-linejoin:miter;stroke-miterlimit:10"
     id="path134" />
  <path
     d="M 143.00612,205.5217 C 147.59601,205.62241 151.93425,203.93892 156.40651,203.19327 C 152.84805,206.02718 148.47134,207.70503 143.95309,208.13689 C 142.60323,208.45157 141.03169,208.21736 139.85881,209.05521 C 137.8305,211.39577 136.89269,214.42749 135.67404,217.22241 C 137.65738,216.85576 139.63643,216.45697 141.63715,216.1788 C 139.70438,218.27095 137.13103,219.44928 134.61397,220.65685 C 131.63988,225.55839 129.30219,232.16866 122.97618,233.50894 C 116.55495,235.32381 109.49754,227.76737 112.51413,221.60133 C 113.44952,219.23364 116.16054,219.55487 118.22496,219.36325 C 118.2594,220.84273 119.89435,223.15234 117.71735,223.75172 C 116.22943,224.03545 114.73558,224.27937 113.23579,224.48349 C 113.69417,227.98663 116.31427,231.04886 120.07918,230.81189 C 126.10948,230.91377 128.6734,224.53049 130.64905,219.88922 C 129.53209,219.84296 127.29814,219.75041 126.18117,219.70415 C 127.96417,218.64226 129.87286,217.78931 131.58345,216.60872 C 133.24866,213.82915 134.52681,210.83591 136.13731,208.02408 C 132.32513,207.65752 128.35393,206.4111 124.57523,207.52316 C 122.97549,208.11998 120.79071,210.96712 123.24963,211.87186 C 125.43163,211.97737 127.47014,211.02333 129.55034,210.51143 C 127.7314,212.6805 125.4082,215.67758 122.1739,214.29097 C 119.91318,213.85794 119.93793,211.18304 120.45502,209.43939 C 121.36256,206.82074 124.07512,205.40027 126.60527,204.75522 C 132.0685,203.45549 137.52351,205.6008 143.00612,205.5217 z "
     style="fill:#000000;fill-rule:nonzero;stroke:none"
     id="path136" />
  <path
     d="M 70.033813,206.11359 C 74.264984,203.6653 79.002975,206.42464 83.471146,206.34045 C 83.881683,209.09473 84.59288,211.7903 85.121552,214.52506 C 82.931488,212.50223 81.30423,209.81682 78.664139,208.32451 C 76.412994,207.01253 73.732117,207.48344 71.272446,207.63454 C 71.289444,208.90929 71.245438,210.1958 71.441574,211.46602 C 75.343826,214.50786 80.757416,215.11142 84.193573,218.84154 C 87.551773,222.23026 87.656052,228.64703 83.534653,231.49561 C 78.649261,235.35327 69.745728,235.51744 66.373505,229.61675 C 64.345413,226.53203 65.099228,221.25775 69.086212,220.26982 C 70.982315,219.75476 71.788849,222.01439 72.929581,223.05908 C 71.106491,224.06381 69.216461,224.93626 67.310898,225.77319 C 69.028717,231.68733 77.085266,233.54511 81.571335,229.63571 C 83.889694,227.87143 84.269043,223.98563 81.892624,222.10904 C 78.104401,219.17366 72.860443,218.97221 69.183762,215.84876 C 66.383469,213.28592 66.561783,208.01727 70.033813,206.11359 z "
     style="fill:none;stroke:#000000;stroke-width:0.1;stroke-linecap:butt;stroke-linejoin:miter;stroke-miterlimit:10"
     id="path138" />
  <path
     d="M 70.033813,206.11359 C 74.264984,203.6653 79.002975,206.42464 83.471146,206.34045 C 83.881683,209.09473 84.59288,211.7903 85.121552,214.52506 C 82.931488,212.50223 81.30423,209.81682 78.664139,208.32451 C 76.412994,207.01253 73.732117,207.48344 71.272446,207.63454 C 71.289444,208.90929 71.245438,210.1958 71.441574,211.46602 C 75.343826,214.50786 80.757416,215.11142 84.193573,218.84154 C 87.551773,222.23026 87.656052,228.64703 83.534653,231.49561 C 78.649261,235.35327 69.745728,235.51744 66.373505,229.61675 C 64.345413,226.53203 65.099228,221.25775 69.086212,220.26982 C 70.982315,219.75476 71.788849,222.01439 72.929581,223.05908 C 71.106491,224.06381 69.216461,224.93626 67.310898,225.77319 C 69.028717,231.68733 77.085266,233.54511 81.571335,229.63571 C 83.889694,227.87143 84.269043,223.98563 81.892624,222.10904 C 78.104401,219.17366 72.860443,218.97221 69.183762,215.84876 C 66.383469,213.28592 66.561783,208.01727 70.033813,206.11359 z "
     style="fill:#000000;fill-rule:nonzero;stroke:none"
     id="path140" />
  <path
     d="M 108.15091,205.07457 C 111.1803,203.63393 108.15341,208.42067 108.15091,205.07457 z "
     style="fill:none;stroke:#827a38;stroke-width:0.1;stroke-linecap:butt;stroke-linejoin:miter;stroke-miterlimit:10"
     id="path142" />
  <path
     d="M 108.15091,205.07457 C 111.1803,203.63393 108.15341,208.42067 108.15091,205.07457 z "
     style="fill:#827a38;fill-rule:nonzero;stroke:none"
     id="path144" />
  <path
     d="M 96.281693,218.12642 C 97.911407,217.56969 98.455902,218.11331 97.915161,219.75728 C 96.283188,220.3026 95.738693,219.75897 96.281693,218.12642 z "
     style="fill:none;stroke:#827a38;stroke-width:0.1;stroke-linecap:butt;stroke-linejoin:miter;stroke-miterlimit:10"
     id="path146" />
  <path
     d="M 96.281693,218.12642 C 97.911407,217.56969 98.455902,218.11331 97.915161,219.75728 C 96.283188,220.3026 95.738693,219.75897 96.281693,218.12642 z "
     style="fill:#827a38;fill-rule:nonzero;stroke:none"
     id="path148" />
</svg>
